<svg xmlns="http://www.w3.org/2000/svg" xmlns:xlink="http://www.w3.org/1999/xlink" width="500" zoomAndPan="magnify" viewBox="0 0 375 374.999991" height="500" preserveAspectRatio="xMidYMid meet" version="1.0"><defs><clipPath id="d4745f7ccc"><path d="M 24 12 L 328.339844 12 L 328.339844 363 L 24 363 Z M 24 12 " clip-rule="nonzero"/></clipPath></defs><g clip-path="url(#d4745f7ccc)"><path fill="#ffffff" d="M 43.578125 354.988281 C 43.578125 355.5 43.628906 356.011719 43.726562 356.515625 C 43.828125 357.019531 43.976562 357.507812 44.171875 357.984375 C 44.371094 358.457031 44.613281 358.910156 44.898438 359.335938 C 45.183594 359.765625 45.507812 360.160156 45.871094 360.523438 C 46.234375 360.886719 46.628906 361.210938 47.058594 361.5 C 47.484375 361.785156 47.9375 362.023438 48.410156 362.222656 C 48.886719 362.417969 49.375 362.566406 49.878906 362.667969 C 50.386719 362.765625 50.894531 362.816406 51.410156 362.816406 L 320.632812 362.816406 C 321.148438 362.816406 321.65625 362.765625 322.164062 362.667969 C 322.667969 362.566406 323.15625 362.417969 323.632812 362.222656 C 324.105469 362.023438 324.558594 361.785156 324.984375 361.5 C 325.414062 361.210938 325.808594 360.886719 326.171875 360.523438 C 326.535156 360.160156 326.859375 359.765625 327.144531 359.335938 C 327.433594 358.910156 327.671875 358.457031 327.871094 357.984375 C 328.066406 357.507812 328.214844 357.019531 328.316406 356.515625 C 328.414062 356.011719 328.464844 355.5 328.464844 354.988281 L 328.464844 154.648438 C 328.464844 154.523438 328.398438 154.417969 328.394531 154.292969 C 328.164062 152.203125 327.320312 150.40625 325.859375 148.898438 C 325.765625 148.816406 325.726562 148.695312 325.628906 148.613281 C 325.328125 148.425781 325.019531 148.257812 324.695312 148.113281 C 323.789062 147.445312 322.773438 147.082031 321.648438 147.023438 C 321.316406 146.929688 320.976562 146.863281 320.632812 146.816406 L 106.746094 146.816406 L 201.289062 119.359375 L 201.308594 119.355469 L 310.617188 87.609375 C 311.109375 87.464844 311.585938 87.273438 312.042969 87.035156 C 312.496094 86.796875 312.925781 86.519531 313.328125 86.199219 C 313.726562 85.875 314.09375 85.519531 314.421875 85.125 C 314.753906 84.730469 315.042969 84.308594 315.289062 83.859375 C 315.539062 83.40625 315.738281 82.9375 315.894531 82.449219 C 316.046875 81.957031 316.15625 81.457031 316.210938 80.945312 C 316.265625 80.433594 316.273438 79.925781 316.230469 79.410156 C 316.183594 78.898438 316.089844 78.398438 315.945312 77.902344 L 298.496094 17.828125 C 298.355469 17.335938 298.164062 16.859375 297.929688 16.402344 C 297.695312 15.945312 297.414062 15.511719 297.09375 15.113281 C 296.773438 14.710938 296.414062 14.34375 296.023438 14.011719 C 295.628906 13.679688 295.207031 13.390625 294.753906 13.140625 C 294.304688 12.894531 293.832031 12.691406 293.34375 12.535156 C 292.851562 12.382812 292.351562 12.277344 291.839844 12.222656 C 291.328125 12.164062 290.816406 12.160156 290.300781 12.207031 C 289.789062 12.25 289.285156 12.347656 288.792969 12.492188 L 30.25 87.585938 C 29.757812 87.726562 29.28125 87.917969 28.824219 88.15625 C 28.371094 88.394531 27.941406 88.671875 27.539062 88.996094 C 27.140625 89.316406 26.773438 89.671875 26.441406 90.066406 C 26.113281 90.460938 25.824219 90.882812 25.574219 91.332031 C 25.328125 91.785156 25.128906 92.253906 24.972656 92.746094 C 24.816406 93.234375 24.710938 93.734375 24.65625 94.246094 C 24.601562 94.757812 24.59375 95.269531 24.636719 95.78125 C 24.683594 96.292969 24.777344 96.792969 24.917969 97.289062 L 42.371094 157.359375 C 42.628906 158.238281 43.03125 159.042969 43.578125 159.78125 Z M 140.753906 162.480469 L 107.210938 203.050781 L 73.113281 203.050781 L 106.65625 162.480469 Z M 195.171875 162.480469 L 161.625 203.050781 L 127.527344 203.050781 L 161.070312 162.480469 Z M 249.585938 162.480469 L 216.042969 203.050781 L 181.941406 203.050781 L 215.488281 162.480469 Z M 304 162.480469 L 270.457031 203.050781 L 236.359375 203.050781 L 269.902344 162.480469 Z M 312.804688 203.050781 L 290.773438 203.050781 L 312.804688 176.40625 Z M 59.238281 297.789062 L 110.144531 297.789062 L 110.144531 316.539062 L 59.238281 316.539062 Z M 59.238281 195.253906 L 59.238281 162.480469 L 86.339844 162.480469 Z M 59.238281 347.15625 L 59.238281 332.199219 L 117.976562 332.199219 C 118.488281 332.199219 119 332.148438 119.503906 332.046875 C 120.007812 331.949219 120.496094 331.800781 120.972656 331.601562 C 121.449219 331.40625 121.898438 331.164062 122.328125 330.878906 C 122.753906 330.59375 123.148438 330.269531 123.511719 329.90625 C 123.875 329.542969 124.203125 329.148438 124.488281 328.71875 C 124.773438 328.292969 125.015625 327.839844 125.210938 327.367188 C 125.40625 326.890625 125.554688 326.402344 125.65625 325.894531 C 125.757812 325.390625 125.804688 324.882812 125.804688 324.367188 L 125.804688 289.957031 C 125.804688 289.441406 125.757812 288.933594 125.65625 288.429688 C 125.554688 287.925781 125.40625 287.433594 125.210938 286.960938 C 125.011719 286.484375 124.773438 286.035156 124.488281 285.605469 C 124.203125 285.179688 123.875 284.78125 123.511719 284.417969 C 123.148438 284.054688 122.753906 283.730469 122.328125 283.445312 C 121.898438 283.160156 121.449219 282.917969 120.972656 282.722656 C 120.496094 282.527344 120.007812 282.378906 119.503906 282.277344 C 119 282.175781 118.488281 282.125 117.976562 282.125 L 59.238281 282.125 L 59.238281 218.710938 L 312.804688 218.710938 L 312.804688 347.15625 Z M 155.789062 67.429688 L 135.09375 122.277344 L 95.953125 133.644531 L 116.644531 78.800781 Z M 213.738281 50.601562 L 193.042969 105.445312 L 153.890625 116.816406 L 174.585938 61.972656 Z M 271.679688 33.773438 L 250.984375 88.617188 L 211.839844 99.984375 L 232.535156 45.140625 Z M 298.726562 74.753906 L 269.78125 83.160156 L 287.515625 36.164062 Z M 42.140625 100.4375 L 97.847656 84.257812 L 77.15625 139.101562 L 55.222656 145.472656 Z M 42.140625 100.4375 " fill-opacity="1" fill-rule="nonzero"/></g></svg>