<svg xmlns="http://www.w3.org/2000/svg" xmlns:xlink="http://www.w3.org/1999/xlink" width="500" zoomAndPan="magnify" viewBox="0 0 375 374.999991" height="500" preserveAspectRatio="xMidYMid meet" version="1.0"><defs><clipPath id="26857d2253"><path d="M 0 0 L 368 0 L 368 234.75 L 0 234.75 Z M 0 0 " clip-rule="nonzero"/></clipPath></defs><g clip-path="url(#26857d2253)"><path fill="#ff5757" d="M 79.269531 127.621094 L 99.632812 139.378906 C 101.382812 140.382812 101.988281 142.636719 100.972656 144.386719 L 89.214844 164.75 C 88.210938 166.5 85.953125 167.09375 84.214844 166.089844 L 63.84375 154.332031 C 62.09375 153.316406 61.488281 151.070312 62.503906 149.320312 L 74.261719 128.949219 C 75.265625 127.21875 77.523438 126.613281 79.269531 127.621094 M 103.300781 85.996094 L 123.664062 97.753906 C 125.414062 98.757812 126.019531 101.011719 125.003906 102.761719 L 113.246094 123.125 C 112.242188 124.875 109.988281 125.476562 108.238281 124.464844 L 87.875 112.707031 C 86.125 111.703125 85.53125 109.445312 86.535156 107.699219 L 98.292969 87.328125 C 99.296875 85.59375 101.554688 84.988281 103.300781 85.996094 Z M 127.324219 44.371094 L 147.6875 56.128906 C 149.4375 57.132812 150.042969 59.390625 149.027344 61.136719 L 137.269531 81.5 C 136.265625 83.25 134.011719 83.84375 132.261719 82.839844 L 111.90625 71.089844 C 110.15625 70.085938 109.5625 67.828125 110.566406 66.082031 L 122.324219 45.71875 C 123.332031 43.96875 125.585938 43.363281 127.324219 44.371094 Z M 289.402344 193.445312 L 309.765625 205.207031 C 311.515625 206.210938 312.113281 208.464844 311.113281 210.214844 L 299.355469 230.578125 C 298.351562 232.324219 296.09375 232.929688 294.347656 231.917969 L 273.984375 220.160156 C 272.234375 219.144531 271.628906 216.898438 272.644531 215.148438 L 284.402344 194.777344 C 285.398438 193.039062 287.65625 192.433594 289.402344 193.445312 Z M 313.433594 151.824219 L 333.796875 163.582031 C 335.546875 164.585938 336.144531 166.839844 335.144531 168.589844 L 323.386719 188.960938 C 322.382812 190.710938 320.128906 191.3125 318.386719 190.300781 L 298.015625 178.542969 C 296.277344 177.539062 295.671875 175.28125 296.675781 173.535156 L 308.433594 153.171875 C 309.4375 151.414062 311.6875 150.808594 313.433594 151.824219 Z M 321.679688 107.453125 L 331.535156 113.140625 L 320.699219 131.910156 C 319.695312 133.65625 320.289062 135.90625 322.039062 136.917969 L 342.402344 148.675781 C 344.152344 149.679688 346.398438 149.085938 347.410156 147.335938 L 358.246094 128.566406 L 367.855469 134.117188 L 309.839844 234.589844 L 248.285156 234.589844 Z M 66.105469 204.773438 C 65.101562 206.519531 62.847656 207.125 61.097656 206.113281 L 40.734375 194.355469 C 38.984375 193.347656 38.390625 191.09375 39.394531 189.34375 L 50.230469 170.574219 C 51.234375 168.835938 53.488281 168.230469 55.238281 169.234375 L 75.601562 180.992188 C 77.351562 182 77.953125 184.253906 76.941406 186.003906 Z M 61.703125 234.582031 L 75.707031 210.320312 L 86.542969 191.558594 L 181.746094 26.664062 L 172.144531 21.121094 L 161.308594 39.875 C 160.304688 41.625 158.050781 42.230469 156.300781 41.214844 L 135.9375 29.457031 C 134.199219 28.453125 133.585938 26.195312 134.597656 24.449219 L 145.433594 5.695312 L 135.578125 0 L 40.375 164.898438 L 29.539062 183.65625 L 0.148438 234.582031 L 15.332031 234.582031 C 14.734375 233.496094 14.699219 232.128906 15.363281 230.976562 L 27.121094 210.613281 C 28.125 208.867188 30.382812 208.269531 32.128906 209.273438 L 52.492188 221.035156 C 54.242188 222.039062 54.847656 224.292969 53.832031 226.035156 L 48.898438 234.582031 Z M 91.429688 234.582031 L 98.007812 223.191406 L 108.84375 204.429688 L 136.683594 156.203125 C 140.507812 149.574219 149.054688 147.289062 155.679688 151.113281 L 226.941406 192.253906 C 233.5625 196.078125 235.855469 204.625 232.023438 211.253906 L 218.558594 234.582031 Z M 299.386719 94.574219 L 260.714844 161.570312 C 256.890625 168.191406 248.34375 170.484375 241.714844 166.660156 L 170.453125 125.519531 C 163.835938 121.695312 161.539062 113.148438 165.363281 106.519531 L 204.039062 39.523438 Z M 299.386719 94.574219 " fill-opacity="1" fill-rule="evenodd"/></g></svg>